<svg width="68" height="68" viewBox="0 0 68 68" fill="none" xmlns="http://www.w3.org/2000/svg">
<g filter="url(#filter0_d_5_305)">
<circle cx="34" cy="30" r="22" fill="#FDFBFA"/>
</g>
<path d="M30.8828 33.6328H29.5078V36H27.1484V33.6328H22.2734V31.9531L27.2812 24.5781H29.5078V31.7578H30.8828V33.6328ZM27.1484 31.7578V29.8203C27.1484 29.4974 27.1615 29.0286 27.1875 28.4141C27.2135 27.7995 27.2344 27.4427 27.25 27.3438H27.1875C26.9948 27.7708 26.763 28.1875 26.4922 28.5938L24.3984 31.7578H27.1484ZM32.0547 34.8828C32.0547 34.4453 32.1719 34.1146 32.4062 33.8906C32.6406 33.6667 32.9818 33.5547 33.4297 33.5547C33.862 33.5547 34.1953 33.6693 34.4297 33.8984C34.6693 34.1276 34.7891 34.4557 34.7891 34.8828C34.7891 35.2943 34.6693 35.6198 34.4297 35.8594C34.1901 36.0938 33.8568 36.2109 33.4297 36.2109C32.9922 36.2109 32.6536 36.0964 32.4141 35.8672C32.1745 35.6328 32.0547 35.3047 32.0547 34.8828ZM40.2812 24.4297C41.375 24.4297 42.2552 24.6797 42.9219 25.1797C43.5938 25.6745 43.9297 26.3438 43.9297 27.1875C43.9297 27.7708 43.7682 28.2917 43.4453 28.75C43.1224 29.2031 42.6016 29.6094 41.8828 29.9688C42.737 30.4271 43.349 30.9062 43.7188 31.4062C44.0938 31.901 44.2812 32.4453 44.2812 33.0391C44.2812 33.9766 43.9141 34.7318 43.1797 35.3047C42.4453 35.8724 41.4792 36.1562 40.2812 36.1562C39.0312 36.1562 38.0495 35.8906 37.3359 35.3594C36.6224 34.8281 36.2656 34.0755 36.2656 33.1016C36.2656 32.4505 36.4375 31.8724 36.7812 31.3672C37.1302 30.862 37.6875 30.4167 38.4531 30.0312C37.8021 29.6198 37.3333 29.1797 37.0469 28.7109C36.7604 28.2422 36.6172 27.7292 36.6172 27.1719C36.6172 26.3542 36.9557 25.6927 37.6328 25.1875C38.3099 24.6823 39.1927 24.4297 40.2812 24.4297ZM38.5 32.9609C38.5 33.4089 38.6562 33.7578 38.9688 34.0078C39.2812 34.2578 39.7083 34.3828 40.25 34.3828C40.849 34.3828 41.2969 34.2552 41.5938 34C41.8906 33.7396 42.0391 33.3984 42.0391 32.9766C42.0391 32.6276 41.8906 32.3021 41.5938 32C41.3021 31.6927 40.8255 31.3672 40.1641 31.0234C39.0547 31.5339 38.5 32.1797 38.5 32.9609ZM40.2656 26.1953C39.8542 26.1953 39.5208 26.3021 39.2656 26.5156C39.0156 26.724 38.8906 27.0052 38.8906 27.3594C38.8906 27.6719 38.9896 27.9531 39.1875 28.2031C39.3906 28.4479 39.7552 28.7005 40.2812 28.9609C40.7917 28.7214 41.1484 28.4766 41.3516 28.2266C41.5547 27.9766 41.6562 27.6875 41.6562 27.3594C41.6562 27 41.526 26.7161 41.2656 26.5078C41.0052 26.2995 40.6719 26.1953 40.2656 26.1953Z" fill="#FFB21A"/>
<defs>
<filter id="filter0_d_5_305" x="0" y="0" width="68" height="68" filterUnits="userSpaceOnUse" color-interpolation-filters="sRGB">
<feFlood flood-opacity="0" result="BackgroundImageFix"/>
<feColorMatrix in="SourceAlpha" type="matrix" values="0 0 0 0 0 0 0 0 0 0 0 0 0 0 0 0 0 0 127 0" result="hardAlpha"/>
<feOffset dy="4"/>
<feGaussianBlur stdDeviation="6"/>
<feComposite in2="hardAlpha" operator="out"/>
<feColorMatrix type="matrix" values="0 0 0 0 0.0666667 0 0 0 0 0.0666667 0 0 0 0 0.0705882 0 0 0 0.05 0"/>
<feBlend mode="normal" in2="BackgroundImageFix" result="effect1_dropShadow_5_305"/>
<feBlend mode="normal" in="SourceGraphic" in2="effect1_dropShadow_5_305" result="shape"/>
</filter>
</defs>
</svg>
