<svg width="25" height="39" viewBox="0 0 25 39" fill="none" xmlns="http://www.w3.org/2000/svg">
<path d="M19.8125 2.4375C20.459 2.4375 21.079 2.69431 21.5361 3.15143C21.9932 3.60855 22.25 4.22853 22.25 4.875V34.125C22.25 34.7715 21.9932 35.3915 21.5361 35.8486C21.079 36.3057 20.459 36.5625 19.8125 36.5625H5.1875C4.54103 36.5625 3.92105 36.3057 3.46393 35.8486C3.00681 35.3915 2.75 34.7715 2.75 34.125V4.875C2.75 4.22853 3.00681 3.60855 3.46393 3.15143C3.92105 2.69431 4.54103 2.4375 5.1875 2.4375H19.8125ZM5.1875 0C3.89457 0 2.65459 0.513615 1.74035 1.42785C0.826114 2.34209 0.3125 3.58207 0.3125 4.875V34.125C0.3125 35.4179 0.826114 36.6579 1.74035 37.5721C2.65459 38.4864 3.89457 39 5.1875 39H19.8125C21.1054 39 22.3454 38.4864 23.2596 37.5721C24.1739 36.6579 24.6875 35.4179 24.6875 34.125V4.875C24.6875 3.58207 24.1739 2.34209 23.2596 1.42785C22.3454 0.513615 21.1054 0 19.8125 0L5.1875 0Z" fill="#111112"/>
<path d="M12.5 34.125C13.1465 34.125 13.7665 33.8682 14.2236 33.4111C14.6807 32.954 14.9375 32.334 14.9375 31.6875C14.9375 31.041 14.6807 30.421 14.2236 29.9639C13.7665 29.5068 13.1465 29.25 12.5 29.25C11.8535 29.25 11.2335 29.5068 10.7764 29.9639C10.3193 30.421 10.0625 31.041 10.0625 31.6875C10.0625 32.334 10.3193 32.954 10.7764 33.4111C11.2335 33.8682 11.8535 34.125 12.5 34.125Z" fill="#111112"/>
</svg>
