<svg width="98" height="29" viewBox="0 0 98 29" fill="none" xmlns="http://www.w3.org/2000/svg">
<rect width="98" height="29" rx="10" fill="#FDFBFA"/>
<path d="M19.374 10.0059H22.1973C23.5234 10.0059 24.4827 10.2041 25.0752 10.6006C25.6676 10.9971 25.9639 11.6237 25.9639 12.4805C25.9639 13.0729 25.7975 13.5628 25.4648 13.9502C25.1367 14.333 24.6559 14.5814 24.0225 14.6953V14.7637C25.54 15.0234 26.2988 15.821 26.2988 17.1562C26.2988 18.0495 25.9958 18.7467 25.3896 19.248C24.7881 19.7493 23.945 20 22.8604 20H19.374V10.0059ZM20.5361 14.2852H22.4502C23.2705 14.2852 23.8607 14.1576 24.2207 13.9023C24.5807 13.6426 24.7607 13.2074 24.7607 12.5967C24.7607 12.0361 24.5602 11.6328 24.1592 11.3867C23.7581 11.1361 23.1201 11.0107 22.2451 11.0107H20.5361V14.2852ZM20.5361 15.2695V19.0088H22.6211C23.4277 19.0088 24.0339 18.8538 24.4395 18.5439C24.8496 18.2295 25.0547 17.7396 25.0547 17.0742C25.0547 16.4544 24.8451 15.9987 24.4258 15.707C24.0111 15.4154 23.3776 15.2695 22.5254 15.2695H20.5361ZM31.6992 12.3711C32.0319 12.3711 32.3304 12.3984 32.5947 12.4531L32.4375 13.5059C32.1276 13.4375 31.8542 13.4033 31.6172 13.4033C31.0111 13.4033 30.4915 13.6494 30.0586 14.1416C29.6302 14.6338 29.416 15.2467 29.416 15.9805V20H28.2812V12.5078H29.2178L29.3477 13.8955H29.4023C29.6803 13.4079 30.0153 13.0319 30.4072 12.7676C30.7992 12.5033 31.2298 12.3711 31.6992 12.3711ZM37.1611 20.1367C36.0537 20.1367 35.1787 19.7995 34.5361 19.125C33.8981 18.4505 33.5791 17.514 33.5791 16.3154C33.5791 15.1077 33.8753 14.1484 34.4678 13.4375C35.0648 12.7266 35.8646 12.3711 36.8672 12.3711C37.806 12.3711 38.5488 12.681 39.0957 13.3008C39.6426 13.916 39.916 14.7295 39.916 15.7412V16.459H34.7549C34.7777 17.3385 34.9987 18.0062 35.418 18.4619C35.8418 18.9176 36.4365 19.1455 37.2021 19.1455C38.0088 19.1455 38.8063 18.9769 39.5947 18.6396V19.6514C39.1937 19.8245 38.8132 19.9476 38.4531 20.0205C38.0977 20.098 37.667 20.1367 37.1611 20.1367ZM36.8535 13.3213C36.252 13.3213 35.7712 13.5173 35.4111 13.9092C35.0557 14.3011 34.846 14.8434 34.7822 15.5361H38.6992C38.6992 14.8206 38.5397 14.2738 38.2207 13.8955C37.9017 13.5127 37.446 13.3213 36.8535 13.3213ZM46.4648 20L46.2393 18.9336H46.1846C45.8109 19.403 45.4372 19.722 45.0635 19.8906C44.6943 20.0547 44.2318 20.1367 43.6758 20.1367C42.9329 20.1367 42.3496 19.9453 41.9258 19.5625C41.5065 19.1797 41.2969 18.6351 41.2969 17.9287C41.2969 16.4157 42.5068 15.6227 44.9268 15.5498L46.1982 15.5088V15.0439C46.1982 14.4561 46.0706 14.0231 45.8154 13.7451C45.5648 13.4626 45.1615 13.3213 44.6055 13.3213C43.9811 13.3213 43.2747 13.5127 42.4863 13.8955L42.1377 13.0273C42.5068 12.8268 42.9102 12.6696 43.3477 12.5557C43.7897 12.4417 44.2318 12.3848 44.6738 12.3848C45.5671 12.3848 46.2279 12.583 46.6562 12.9795C47.0892 13.376 47.3057 14.0117 47.3057 14.8867V20H46.4648ZM43.9014 19.2002C44.6077 19.2002 45.1615 19.0065 45.5625 18.6191C45.9681 18.2318 46.1709 17.6895 46.1709 16.9922V16.3154L45.0361 16.3633C44.1338 16.3952 43.4821 16.5365 43.0811 16.7871C42.6846 17.0332 42.4863 17.4183 42.4863 17.9424C42.4863 18.3525 42.6094 18.6647 42.8555 18.8789C43.1061 19.0931 43.4548 19.2002 43.9014 19.2002ZM50.7715 16.165C50.9674 15.887 51.266 15.5225 51.667 15.0713L54.0869 12.5078H55.4336L52.3984 15.7002L55.6455 20H54.2715L51.626 16.459L50.7715 17.1973V20H49.6504V9.36328H50.7715V15.0029C50.7715 15.2536 50.7533 15.641 50.7168 16.165H50.7715ZM60.3828 13.3896H58.4756V20H57.3408V13.3896H56.001V12.877L57.3408 12.4668V12.0498C57.3408 10.2087 58.1452 9.28809 59.7539 9.28809C60.1504 9.28809 60.6152 9.36784 61.1484 9.52734L60.8545 10.4365C60.417 10.2952 60.0433 10.2246 59.7334 10.2246C59.305 10.2246 58.9883 10.3682 58.7832 10.6553C58.5781 10.9378 58.4756 11.3936 58.4756 12.0225V12.5078H60.3828V13.3896ZM66.3574 20L66.1318 18.9336H66.0771C65.7035 19.403 65.3298 19.722 64.9561 19.8906C64.5869 20.0547 64.1243 20.1367 63.5684 20.1367C62.8255 20.1367 62.2422 19.9453 61.8184 19.5625C61.3991 19.1797 61.1895 18.6351 61.1895 17.9287C61.1895 16.4157 62.3994 15.6227 64.8193 15.5498L66.0908 15.5088V15.0439C66.0908 14.4561 65.9632 14.0231 65.708 13.7451C65.4574 13.4626 65.054 13.3213 64.498 13.3213C63.8737 13.3213 63.1673 13.5127 62.3789 13.8955L62.0303 13.0273C62.3994 12.8268 62.8027 12.6696 63.2402 12.5557C63.6823 12.4417 64.1243 12.3848 64.5664 12.3848C65.4596 12.3848 66.1204 12.583 66.5488 12.9795C66.9818 13.376 67.1982 14.0117 67.1982 14.8867V20H66.3574ZM63.7939 19.2002C64.5003 19.2002 65.054 19.0065 65.4551 18.6191C65.8607 18.2318 66.0635 17.6895 66.0635 16.9922V16.3154L64.9287 16.3633C64.0264 16.3952 63.3747 16.5365 62.9736 16.7871C62.5771 17.0332 62.3789 17.4183 62.3789 17.9424C62.3789 18.3525 62.502 18.6647 62.748 18.8789C62.9987 19.0931 63.3473 19.2002 63.7939 19.2002ZM74.376 17.9561C74.376 18.6533 74.1162 19.1911 73.5967 19.5693C73.0771 19.9476 72.348 20.1367 71.4092 20.1367C70.4157 20.1367 69.641 19.9795 69.085 19.665V18.6123C69.445 18.7946 69.8301 18.9382 70.2402 19.043C70.6549 19.1478 71.0537 19.2002 71.4365 19.2002C72.029 19.2002 72.4847 19.1068 72.8037 18.9199C73.1227 18.7285 73.2822 18.4391 73.2822 18.0518C73.2822 17.7601 73.1546 17.5117 72.8994 17.3066C72.6488 17.097 72.1566 16.8509 71.4229 16.5684C70.7256 16.3086 70.2288 16.083 69.9326 15.8916C69.641 15.6956 69.4222 15.4746 69.2764 15.2285C69.1351 14.9824 69.0645 14.6885 69.0645 14.3467C69.0645 13.736 69.3128 13.2552 69.8096 12.9043C70.3063 12.5488 70.9876 12.3711 71.8535 12.3711C72.6602 12.3711 73.4486 12.5352 74.2188 12.8633L73.8154 13.7861C73.0635 13.4762 72.3822 13.3213 71.7715 13.3213C71.2337 13.3213 70.8281 13.4056 70.5547 13.5742C70.2812 13.7428 70.1445 13.9753 70.1445 14.2715C70.1445 14.472 70.1947 14.6429 70.2949 14.7842C70.3997 14.9255 70.5661 15.0599 70.7939 15.1875C71.0218 15.3151 71.4593 15.4997 72.1064 15.7412C72.9951 16.0648 73.5944 16.3906 73.9043 16.7188C74.2188 17.0469 74.376 17.4593 74.376 17.9561ZM78.6484 19.2002C78.849 19.2002 79.0426 19.1865 79.2295 19.1592C79.4163 19.1273 79.5645 19.0954 79.6738 19.0635V19.9316C79.5508 19.9909 79.3685 20.0387 79.127 20.0752C78.89 20.1162 78.6758 20.1367 78.4844 20.1367C77.0352 20.1367 76.3105 19.3734 76.3105 17.8467V13.3896H75.2373V12.8428L76.3105 12.3711L76.7891 10.7715H77.4453V12.5078H79.6191V13.3896H77.4453V17.7988C77.4453 18.25 77.5524 18.5964 77.7666 18.8379C77.9808 19.0794 78.2747 19.2002 78.6484 19.2002Z" fill="#ADAEAF"/>
</svg>
