<svg width="22" height="22" viewBox="0 0 22 22" fill="none" xmlns="http://www.w3.org/2000/svg">
<circle cx="11" cy="11" r="11" fill="#EAEAEA"/>
<g clip-path="url(#clip0_5_335)">
<path d="M15.6214 13.1211C15.0588 13.6837 14.2957 13.9998 13.5001 13.9998C12.7337 13.9998 11.9975 13.7065 11.4416 13.1821L11.0959 14.1967C11.785 14.7149 12.6279 14.9998 13.5001 14.9998C14.5609 14.9998 15.5784 14.5784 16.3285 13.8282C17.0787 13.0781 17.5001 12.0607 17.5001 10.9998C17.5001 8.79082 15.7091 4.99982 13.5001 4.99982C12.0171 4.99982 10.7225 6.70837 10.0317 8.49982L10.7351 9.49982C11.2474 7.73605 12.4993 5.99982 13.5001 5.99982C14.7911 5.99982 16.5001 8.88932 16.5001 10.9998C16.5001 11.7955 16.184 12.5585 15.6214 13.1211Z" fill="#111112"/>
<path d="M8.5 15.4998C9.29565 15.4998 10.0587 15.1837 10.6213 14.6211C11.1839 14.0585 11.5 13.2955 11.5 12.4998C11.5 10.3893 9.791 7.49982 8.5 7.49982C7.209 7.49982 5.5 10.3893 5.5 12.4998C5.5 13.2955 5.81607 14.0585 6.37868 14.6211C6.94129 15.1837 7.70435 15.4998 8.5 15.4998ZM8.5 16.4998C7.43913 16.4998 6.42172 16.0784 5.67157 15.3282C4.92143 14.5781 4.5 13.5607 4.5 12.4998C4.5 10.2908 6.291 6.49982 8.5 6.49982C10.709 6.49982 12.5 10.2908 12.5 12.4998C12.5 13.5607 12.0786 14.5781 11.3284 15.3282C10.5783 16.0784 9.56087 16.4998 8.5 16.4998Z" fill="#111112"/>
<circle cx="8.5" cy="12.4998" r="1.5" stroke="#111112"/>
</g>
<defs>
<clipPath id="clip0_5_335">
<rect width="14" height="14" fill="white" transform="translate(4.5 4.99982)"/>
</clipPath>
</defs>
</svg>
