<svg width="22" height="22" viewBox="0 0 22 22" fill="none" xmlns="http://www.w3.org/2000/svg">
<circle cx="11" cy="11" r="11" fill="#EAEAEA"/>
<g clip-path="url(#clip0_5_330)">
<path d="M12.7022 8.21094C12.7022 8.32682 12.6679 8.44011 12.6035 8.53647C12.5391 8.63282 12.4476 8.70792 12.3405 8.75227C12.2335 8.79662 12.1157 8.80822 12.002 8.78562C11.8883 8.76301 11.7839 8.7072 11.702 8.62526C11.62 8.54331 11.5642 8.43891 11.5416 8.32525C11.519 8.21159 11.5306 8.09377 11.575 7.98671C11.6193 7.87964 11.6944 7.78813 11.7908 7.72375C11.8871 7.65936 12.0004 7.625 12.1163 7.625C12.2717 7.625 12.4207 7.68673 12.5306 7.79662C12.6405 7.9065 12.7022 8.05554 12.7022 8.21094ZM14.1769 12.7031C12.8829 13.9922 10.837 14.5293 8.06846 14.3096C8.14658 14.8857 8.254 15.4961 8.39561 16.1357C8.40707 16.1858 8.40843 16.2376 8.3996 16.2882C8.39077 16.3388 8.37193 16.3871 8.34419 16.4303C8.31645 16.4735 8.28036 16.5107 8.23804 16.5398C8.19573 16.5689 8.14803 16.5892 8.09775 16.5996L8.01475 16.6094C7.92571 16.6092 7.83941 16.5786 7.77015 16.5226C7.70088 16.4667 7.65281 16.3888 7.63389 16.3018C7.47275 15.5742 7.35557 14.8809 7.27256 14.2266C6.61826 14.1436 5.9249 14.0215 5.19736 13.8652C5.09571 13.8432 5.00696 13.7817 4.95064 13.6943C4.89433 13.6068 4.87506 13.5006 4.89707 13.3989C4.91909 13.2973 4.98058 13.2085 5.06803 13.1522C5.15548 13.0959 5.26172 13.0766 5.36338 13.0986C6.00303 13.2402 6.61338 13.3525 7.18955 13.4307C6.96982 10.6621 7.50693 8.61621 8.796 7.32226C10.7979 5.32031 13.962 5.81348 14.8849 6.01367C15.0325 6.04461 15.1679 6.11789 15.2746 6.22455C15.3812 6.33121 15.4545 6.46663 15.4854 6.61426C15.6856 7.53711 16.1788 10.7012 14.1769 12.7031ZM13.5079 12.2588C12.4337 12.0986 11.4401 11.595 10.6759 10.8232C9.9049 10.0565 9.40151 9.06168 9.24033 7.98633C8.17588 9.14844 7.75107 10.999 7.98057 13.5186C10.4952 13.748 12.3507 13.3232 13.5079 12.2588ZM14.7237 6.78027C13.9913 6.61914 11.6817 6.24805 9.97275 7.37109C10.007 8.46228 10.4558 9.49941 11.2277 10.2714C11.9997 11.0433 13.0368 11.4921 14.128 11.5264C15.2511 9.81738 14.88 7.50781 14.7237 6.78027Z" fill="#111112"/>
</g>
<defs>
<clipPath id="clip0_5_330">
<rect width="12.5" height="12.5" fill="white" transform="translate(4.49902 4.5)"/>
</clipPath>
</defs>
</svg>
