<svg width="220" height="36" viewBox="0 0 220 36" fill="none" xmlns="http://www.w3.org/2000/svg">
<line x1="220" y1="18.5" x2="24" y2="18.5" stroke="#ADAEAF"/>
<circle cx="18" cy="18" r="18" fill="#1AC84B"/>
<path d="M17.3965 17.9961C17.3965 18.8027 17.3327 19.5251 17.2051 20.1631C17.082 20.7965 16.8861 21.3343 16.6172 21.7764C16.3483 22.2184 15.9974 22.5557 15.5645 22.7881C15.1315 23.0205 14.6074 23.1367 13.9922 23.1367C13.222 23.1367 12.5863 22.9339 12.085 22.5283C11.5837 22.1182 11.2122 21.5303 10.9707 20.7646C10.7292 19.9945 10.6084 19.0716 10.6084 17.9961C10.6084 16.9206 10.7178 16 10.9365 15.2344C11.1598 14.4642 11.5199 13.874 12.0166 13.4639C12.5133 13.0537 13.1719 12.8486 13.9922 12.8486C14.7669 12.8486 15.4049 13.0537 15.9062 13.4639C16.4121 13.8695 16.7858 14.4574 17.0273 15.2275C17.2734 15.9932 17.3965 16.916 17.3965 17.9961ZM12.2285 17.9961C12.2285 18.8392 12.2832 19.5433 12.3926 20.1084C12.5065 20.6735 12.6934 21.0973 12.9531 21.3799C13.2129 21.6579 13.5592 21.7969 13.9922 21.7969C14.4251 21.7969 14.7715 21.6579 15.0312 21.3799C15.291 21.1019 15.4779 20.6803 15.5918 20.1152C15.7103 19.5501 15.7695 18.8438 15.7695 17.9961C15.7695 17.1576 15.7126 16.4557 15.5986 15.8906C15.4847 15.3255 15.2979 14.9017 15.0381 14.6191C14.7783 14.332 14.4297 14.1885 13.9922 14.1885C13.5547 14.1885 13.2061 14.332 12.9463 14.6191C12.6911 14.9017 12.5065 15.3255 12.3926 15.8906C12.2832 16.4557 12.2285 17.1576 12.2285 17.9961ZM23.3643 23H21.751V16.5674C21.751 16.3532 21.7533 16.139 21.7578 15.9248C21.7624 15.7106 21.7669 15.501 21.7715 15.2959C21.7806 15.0908 21.792 14.8949 21.8057 14.708C21.71 14.8128 21.5915 14.9268 21.4502 15.0498C21.3135 15.1729 21.1676 15.3005 21.0127 15.4326L19.8643 16.3486L19.0576 15.3301L22.0244 13.0059H23.3643V23Z" fill="#FDFBFA"/>
</svg>
