<svg width="220" height="36" viewBox="0 0 220 36" fill="none" xmlns="http://www.w3.org/2000/svg">
<line x1="220" y1="18.5" x2="18" y2="18.5" stroke="#ADAEAF"/>
<circle cx="18" cy="18" r="18" fill="#FFB21A"/>
<path d="M17.3965 17.9961C17.3965 18.8027 17.3327 19.5251 17.2051 20.1631C17.082 20.7965 16.8861 21.3343 16.6172 21.7764C16.3483 22.2184 15.9974 22.5557 15.5645 22.7881C15.1315 23.0205 14.6074 23.1367 13.9922 23.1367C13.222 23.1367 12.5863 22.9339 12.085 22.5283C11.5837 22.1182 11.2122 21.5303 10.9707 20.7646C10.7292 19.9945 10.6084 19.0716 10.6084 17.9961C10.6084 16.9206 10.7178 16 10.9365 15.2344C11.1598 14.4642 11.5199 13.874 12.0166 13.4639C12.5133 13.0537 13.1719 12.8486 13.9922 12.8486C14.7669 12.8486 15.4049 13.0537 15.9062 13.4639C16.4121 13.8695 16.7858 14.4574 17.0273 15.2275C17.2734 15.9932 17.3965 16.916 17.3965 17.9961ZM12.2285 17.9961C12.2285 18.8392 12.2832 19.5433 12.3926 20.1084C12.5065 20.6735 12.6934 21.0973 12.9531 21.3799C13.2129 21.6579 13.5592 21.7969 13.9922 21.7969C14.4251 21.7969 14.7715 21.6579 15.0312 21.3799C15.291 21.1019 15.4779 20.6803 15.5918 20.1152C15.7103 19.5501 15.7695 18.8438 15.7695 17.9961C15.7695 17.1576 15.7126 16.4557 15.5986 15.8906C15.4847 15.3255 15.2979 14.9017 15.0381 14.6191C14.7783 14.332 14.4297 14.1885 13.9922 14.1885C13.5547 14.1885 13.2061 14.332 12.9463 14.6191C12.6911 14.9017 12.5065 15.3255 12.3926 15.8906C12.2832 16.4557 12.2285 17.1576 12.2285 17.9961ZM25.0254 15.2891C25.0254 15.7402 24.9342 16.1322 24.752 16.4648C24.5697 16.7975 24.319 17.071 24 17.2852C23.6855 17.4948 23.321 17.6452 22.9062 17.7363V17.7842C23.7038 17.8844 24.3053 18.1351 24.7109 18.5361C25.1211 18.9372 25.3262 19.4681 25.3262 20.1289C25.3262 20.7077 25.1872 21.2249 24.9092 21.6807C24.6312 22.1318 24.2051 22.4873 23.6309 22.7471C23.0566 23.0068 22.3184 23.1367 21.416 23.1367C20.8737 23.1367 20.3701 23.0934 19.9053 23.0068C19.445 22.9202 19.0075 22.7812 18.5928 22.5898V21.1611C19.0166 21.3708 19.4678 21.5326 19.9463 21.6465C20.4248 21.7604 20.8783 21.8174 21.3066 21.8174C22.1406 21.8174 22.7354 21.6624 23.0908 21.3525C23.4463 21.0381 23.624 20.6051 23.624 20.0537C23.624 19.6982 23.5306 19.4066 23.3438 19.1787C23.1615 18.9508 22.8766 18.7799 22.4893 18.666C22.1064 18.5521 21.612 18.4951 21.0059 18.4951H20.124V17.2031H21.0127C21.5915 17.2031 22.0563 17.1348 22.4072 16.998C22.7581 16.8568 23.0111 16.6631 23.166 16.417C23.3255 16.1709 23.4053 15.8838 23.4053 15.5557C23.4053 15.1273 23.2663 14.7946 22.9883 14.5576C22.7103 14.3161 22.2979 14.1953 21.751 14.1953C21.4137 14.1953 21.1061 14.234 20.8281 14.3115C20.5547 14.389 20.3018 14.487 20.0693 14.6055C19.8369 14.724 19.6159 14.8516 19.4062 14.9883L18.6338 13.874C19.012 13.5915 19.4632 13.3522 19.9873 13.1562C20.5114 12.9603 21.1221 12.8623 21.8193 12.8623C22.8447 12.8623 23.6354 13.0833 24.1914 13.5254C24.7474 13.9629 25.0254 14.5508 25.0254 15.2891Z" fill="#FDFBFA"/>
</svg>
