<svg width="220" height="36" viewBox="0 0 220 36" fill="none" xmlns="http://www.w3.org/2000/svg">
<line x1="220" y1="18.4995" x2="10" y2="18.4995" stroke="#ADAEAF"/>
<circle cx="18" cy="17.9995" r="18" fill="#111112"/>
<path d="M17.3965 17.9956C17.3965 18.8022 17.3327 19.5246 17.2051 20.1626C17.082 20.7961 16.8861 21.3338 16.6172 21.7759C16.3483 22.2179 15.9974 22.5552 15.5645 22.7876C15.1315 23.02 14.6074 23.1362 13.9922 23.1362C13.222 23.1362 12.5863 22.9334 12.085 22.5278C11.5837 22.1177 11.2122 21.5298 10.9707 20.7642C10.7292 19.994 10.6084 19.0711 10.6084 17.9956C10.6084 16.9201 10.7178 15.9995 10.9365 15.2339C11.1598 14.4637 11.5199 13.8735 12.0166 13.4634C12.5133 13.0532 13.1719 12.8481 13.9922 12.8481C14.7669 12.8481 15.4049 13.0532 15.9062 13.4634C16.4121 13.869 16.7858 14.4569 17.0273 15.2271C17.2734 15.9927 17.3965 16.9155 17.3965 17.9956ZM12.2285 17.9956C12.2285 18.8387 12.2832 19.5428 12.3926 20.1079C12.5065 20.673 12.6934 21.0968 12.9531 21.3794C13.2129 21.6574 13.5592 21.7964 13.9922 21.7964C14.4251 21.7964 14.7715 21.6574 15.0312 21.3794C15.291 21.1014 15.4779 20.6799 15.5918 20.1147C15.7103 19.5496 15.7695 18.8433 15.7695 17.9956C15.7695 17.1571 15.7126 16.4552 15.5986 15.8901C15.4847 15.325 15.2979 14.9012 15.0381 14.6187C14.7783 14.3315 14.4297 14.188 13.9922 14.188C13.5547 14.188 13.2061 14.3315 12.9463 14.6187C12.6911 14.9012 12.5065 15.325 12.3926 15.8901C12.2832 16.4552 12.2285 17.1571 12.2285 17.9956ZM25.4082 22.9995H18.6406V21.7896L21.2314 19.1646C21.7327 18.6541 22.1452 18.2144 22.4688 17.8452C22.7923 17.4715 23.0316 17.1183 23.1865 16.7856C23.346 16.453 23.4258 16.0907 23.4258 15.6987C23.4258 15.2157 23.2868 14.8511 23.0088 14.605C22.7308 14.3543 22.3639 14.229 21.9082 14.229C21.4753 14.229 21.0742 14.3156 20.7051 14.4888C20.3405 14.6574 19.9622 14.8989 19.5703 15.2134L18.6885 14.1538C18.9665 13.9168 19.2627 13.7004 19.5771 13.5044C19.8962 13.3084 20.2516 13.1535 20.6436 13.0396C21.0355 12.9211 21.4821 12.8618 21.9834 12.8618C22.6169 12.8618 23.1637 12.9757 23.624 13.2036C24.0843 13.4269 24.4375 13.7391 24.6836 14.1401C24.9342 14.5412 25.0596 15.0083 25.0596 15.5415C25.0596 16.0793 24.9525 16.576 24.7383 17.0317C24.5241 17.4875 24.2188 17.9386 23.8223 18.3853C23.4258 18.8273 22.9541 19.3081 22.4072 19.8276L20.6777 21.5161V21.5913H25.4082V22.9995Z" fill="#FDFBFA"/>
</svg>
