<svg width="22" height="22" viewBox="0 0 22 22" fill="none" xmlns="http://www.w3.org/2000/svg">
<circle cx="11" cy="11" r="11" fill="#EAEAEA"/>
<path d="M8.85918 7.72332C6.74524 8.28658 6.05341 10.5941 6.00302 12.9007C5.96435 14.6709 7.46914 16.0515 9.23866 15.9899C12.6036 15.8728 14.0743 14.7521 14.4988 13.3274M12.9804 8.40609C15.0259 10.2326 15.5557 11.8128 15.4955 12.8541C15.4612 13.4475 14.7794 13.5311 14.355 13.115L8.79649 7.66553C8.45492 7.33066 8.39853 6.7566 8.84834 6.5939C9.58687 6.32675 10.8924 6.54162 12.9804 8.40609Z" stroke="#111112" stroke-linecap="round"/>
<path d="M12.5 7.86667L13.2704 6.96786C13.7065 6.45911 14.4935 6.45911 14.9296 6.96786V6.96786C15.2629 7.35669 15.2814 7.92483 14.9741 8.33452L14.1 9.5" stroke="#111112" stroke-linecap="round"/>
</svg>
