<svg width="22" height="22" viewBox="0 0 22 22" fill="none" xmlns="http://www.w3.org/2000/svg">
<circle cx="11" cy="11" r="11" fill="#EAEAEA"/>
<path d="M6.6151 13.6557C6.4436 13.5844 6.21577 13.4659 5.91439 13.2686C5.51431 13.0068 5.45192 12.5588 5.52825 12.12C5.64698 11.4376 6.30322 10.9651 6.99448 11.0098C7.52933 11.0444 7.92647 11.4026 8.16711 11.8815C8.81323 13.1674 8.53776 12.3676 9.9796 13.2686C10.0716 13.3261 10.1489 13.3936 10.2135 13.4687C11.0484 14.4409 9.5014 15.6947 8.27497 15.3232C8.07544 15.2628 7.90734 15.1901 7.79064 15.1106C7.42964 14.8647 7.31358 14.4799 7.23756 14.1826C7.16186 13.8866 6.89726 13.7729 6.6151 13.6557Z" stroke="#111112" stroke-linecap="round"/>
<path d="M14.4219 11.3086C14.4803 11.1323 14.5817 10.8963 14.7561 10.5811C14.9876 10.1628 15.4297 10.0674 15.8729 10.1111C16.5623 10.179 17.0821 10.7984 17.0887 11.4911C17.0937 12.027 16.7659 12.4496 16.3061 12.725C15.0716 13.4645 15.8488 13.1306 15.0569 14.6352C15.0064 14.7312 14.9448 14.8133 14.8746 14.8832C13.967 15.7878 12.6021 14.3379 12.8818 13.0873C12.9273 12.8839 12.9873 12.7108 13.058 12.5886C13.2765 12.2104 13.6517 12.0661 13.9425 11.9683C14.2321 11.8709 14.3259 11.5986 14.4219 11.3086Z" stroke="#111112" stroke-linecap="round"/>
<path d="M9.5829 7.65192C9.5153 7.48234 9.44253 7.24255 9.37415 6.90065C9.27992 6.42951 9.56312 6.06439 9.93517 5.80529C10.4954 5.41512 11.2811 5.5349 11.7313 6.04823C12.0803 6.4463 12.1046 6.97447 11.9343 7.47576C11.4659 8.85441 11.8429 8.08594 12.2094 9.73587C12.2328 9.84122 12.2387 9.94348 12.2302 10.0422C12.1199 11.3219 10.1338 11.12 9.54599 9.97797C9.4579 9.80682 9.39775 9.6484 9.37414 9.51778C9.29765 9.09452 9.48661 8.74234 9.6441 8.47875C9.80335 8.21221 9.69787 7.94034 9.5829 7.65192Z" stroke="#111112" stroke-linecap="round"/>
</svg>
