<svg width="68" height="53" viewBox="0 0 68 53" fill="none" xmlns="http://www.w3.org/2000/svg">
<path d="M43.3796 10.378L43.3796 47.0505C43.3796 48.4699 44.4907 49.641 45.9082 49.7156C47.4351 49.796 48.7172 48.5795 48.7172 47.0505L48.7172 34.5704C48.7172 34.2907 48.8416 34.0188 49.0434 33.8252C58.1477 25.0899 52.3061 14.8839 46.4198 9.00028C45.2467 7.82767 43.3796 8.71927 43.3796 10.378Z" stroke="#111112" stroke-width="3"/>
<path d="M23.4122 12.5078V9.65925C23.4122 9.10696 22.9645 8.65925 22.4122 8.65925H21.7796C19.5165 8.65925 17.704 10.5353 17.782 12.7971L18.125 22.7447C18.2135 25.3093 20.229 27.3906 22.7895 27.5613L23.0915 27.5814V46.8196C23.0915 48.263 24.2166 49.4563 25.6575 49.541V49.541C27.2233 49.6331 28.5437 48.3882 28.5437 46.8196L28.5437 27.9022L29.4441 27.8492C32.0229 27.6975 34.0617 25.6063 34.1477 23.0244L34.492 12.6954C34.5701 10.3521 32.6253 8.44442 30.284 8.56765L29.4911 8.60938C28.96 8.63734 28.5437 9.07614 28.5437 9.608V11.8664" stroke="#111112" stroke-width="3" stroke-linecap="round"/>
<path d="M23.4121 20.2056V9.30126" stroke="#111112" stroke-width="3" stroke-linecap="round"/>
<path d="M28.5437 20.2056V9.30126" stroke="#111112" stroke-width="3" stroke-linecap="round"/>
<path d="M23.4123 11.225V11.225C23.4123 9.80799 24.561 8.65928 25.978 8.65928V8.65928C27.395 8.65928 28.5437 9.80799 28.5437 11.225V11.225" stroke="#111112" stroke-width="3" stroke-linecap="round"/>
</svg>
